<svg width="32" height="40" viewBox="0 0 32 40" fill="none" xmlns="http://www.w3.org/2000/svg">
<path d="M14.3005 20.0257L0.70478 6.37752C-0.234927 5.43419 -0.234927 3.9088 0.70478 2.97551L2.96407 0.707498C3.90378 -0.235833 5.4233 -0.235833 6.35301 0.707498L15.99 10.3817L25.627 0.707498C26.5667 -0.235833 28.0862 -0.235833 29.0159 0.707498L31.2952 2.96547C32.2349 3.9088 32.2349 5.43419 31.2952 6.36748L17.6995 20.0157C16.7598 20.969 15.2402 20.969 14.3005 20.0257ZM17.6995 39.2938L31.2952 25.6456C32.2349 24.7022 32.2349 23.1768 31.2952 22.2435L29.0359 19.9755C28.0962 19.0322 26.5767 19.0322 25.647 19.9755L16 29.6397L6.36301 19.9655C5.42331 19.0222 3.90378 19.0222 2.97407 19.9655L0.70478 22.2335C-0.234927 23.1768 -0.234927 24.7022 0.70478 25.6355L14.3005 39.2837C15.2402 40.2371 16.7598 40.2371 17.6995 39.2938Z" fill="#78ACFF"/>
</svg>
